<mxfile modified="2022-08-09T08:14:00.343Z" host="app.diagrams.net" agent="5.0 (Windows NT 10.0; Win64; x64) AppleWebKit/537.36 (KHTML, like Gecko) Chrome/103.0.0.0 Safari/537.36" etag="tkaqnAK8fvCTkDsyrdmq" version="18.0.6" type="github">
  <diagram id="f106602c-feb2-e66a-4537-3a34d633f6aa" name="Page-1">
    <mxGraphModel dx="1422" dy="786" grid="1" gridSize="10" guides="1" tooltips="1" connect="1" arrows="1" fold="1" page="1" pageScale="1" pageWidth="1169" pageHeight="827" background="none" math="0" shadow="0">
      <root>
        <mxCell id="0" />
        <mxCell id="1" parent="0" />
        <mxCell id="14" value="&lt;b&gt;Google &lt;/b&gt;Cloud Platform" style="fillColor=#F6F6F6;strokeColor=none;shadow=0;gradientColor=none;fontSize=14;align=left;spacing=10;fontColor=#717171;9E9E9E;verticalAlign=top;spacingTop=-4;fontStyle=0;spacingLeft=40;html=1;" parent="1" vertex="1">
          <mxGeometry x="570" y="109" width="340" height="331" as="geometry" />
        </mxCell>
        <mxCell id="15" value="" style="shape=mxgraph.gcp2.google_cloud_platform;fillColor=#F6F6F6;strokeColor=none;shadow=0;gradientColor=none;" parent="14" vertex="1">
          <mxGeometry width="23" height="20" relative="1" as="geometry">
            <mxPoint x="20" y="10" as="offset" />
          </mxGeometry>
        </mxCell>
        <mxCell id="pGSvymUeo9-D6tLOgoS9-1002" value="" style="strokeColor=#dddddd;shadow=1;strokeWidth=1;rounded=1;absoluteArcSize=1;arcSize=2;" vertex="1" parent="14">
          <mxGeometry x="65" y="61" width="200.00000000000003" height="62.5" as="geometry" />
        </mxCell>
        <mxCell id="pGSvymUeo9-D6tLOgoS9-1003" value="&lt;font color=&quot;#000000&quot;&gt;Name&lt;/font&gt;&lt;br&gt;Cloud Functions" style="editableCssRules=.*;html=1;fontColor=#999999;shape=image;verticalLabelPosition=middle;labelBackgroundColor=#ffffff;verticalAlign=middle;labelPosition=right;align=left;spacingLeft=20;part=1;points=[];imageAspect=0;image=data:image/svg+xml,PHN2ZyB4bWxucz0iaHR0cDovL3d3dy53My5vcmcvMjAwMC9zdmciIHhtbG5zOnY9Imh0dHBzOi8vdmVjdGEuaW8vbmFubyIgd2lkdGg9IjIwIiBoZWlnaHQ9IjE5Ljk4OTk5OTc3MTExODE2NCIgdmlld0JveD0iMCAwIDIwIDE5Ljk4OTk5OTc3MTExODE2NCI+JiN4YTsJPHN0eWxlIHR5cGU9InRleHQvY3NzIj4mI3hhOwkuc3Qwe2ZpbGw6IzQyODVmNDt9JiN4YTsJLnN0MXtmaWxsOiM2NjlkZjY7fSYjeGE7CS5zdDJ7ZmlsbDojYWVjYmZhO30mI3hhOwk8L3N0eWxlPiYjeGE7CTxwYXRoIGNsYXNzPSJzdDEiIGQ9Ik0zIDMuOTlMMCA2LjQydjcuMTNsMyAyLjQ0eiIvPiYjeGE7CTxwYXRoIGNsYXNzPSJzdDAiIGQ9Ik0zIDMuOTlsLTMgNCAzLTJ6bS0zIDhsMyA0di0yeiIvPiYjeGE7CTxwYXRoIGNsYXNzPSJzdDIiIGQ9Ik0wIDE1Ljk5bDQgNCAyLTItNi02em0uMDEtOEw1Ljk5IDJsLTItMkwwIDMuOTl6Ii8+JiN4YTsJPHBhdGggY2xhc3M9InN0MSIgZD0iTTE3IDE2bDMtMi40MlY2LjQ0TDE3IDR6Ii8+JiN4YTsJPHBhdGggY2xhc3M9InN0MCIgZD0iTTE3IDE2bDMtNC0zIDJ6bTMtOGwtMy00djJ6Ii8+JiN4YTsJPGcgY2xhc3M9InN0MiI+JiN4YTsJCTxwYXRoIGQ9Ik0yMCA0bC00LTQtMiAyIDYgNnptLS4wMSA4bC01Ljk4IDUuOTkgMiAyTDIwIDE2eiIvPiYjeGE7CQk8Y2lyY2xlIGN4PSI2IiBjeT0iOS45OSIgcj0iMSIvPiYjeGE7CQk8Y2lyY2xlIGN4PSIxMCIgY3k9IjkuOTkiIHI9IjEiLz4mI3hhOwkJPGNpcmNsZSBjeD0iMTMuOTkiIGN5PSI5Ljk5IiByPSIxIi8+JiN4YTsJPC9nPiYjeGE7PC9zdmc+;" vertex="1" parent="pGSvymUeo9-D6tLOgoS9-1002">
          <mxGeometry width="30" height="24" relative="1" as="geometry">
            <mxPoint x="15" y="18" as="offset" />
          </mxGeometry>
        </mxCell>
        <mxCell id="pGSvymUeo9-D6tLOgoS9-1023" value="" style="dashed=0;outlineConnect=0;html=1;align=center;labelPosition=center;verticalLabelPosition=bottom;verticalAlign=top;shape=mxgraph.weblogos.java" vertex="1" parent="pGSvymUeo9-D6tLOgoS9-1002">
          <mxGeometry x="165.60000000000002" y="-2.5" width="34.4" height="65" as="geometry" />
        </mxCell>
        <mxCell id="pGSvymUeo9-D6tLOgoS9-1016" style="edgeStyle=orthogonalEdgeStyle;rounded=0;orthogonalLoop=1;jettySize=auto;html=1;exitX=0.5;exitY=0;exitDx=0;exitDy=0;entryX=0.5;entryY=1;entryDx=0;entryDy=0;" edge="1" parent="14" source="pGSvymUeo9-D6tLOgoS9-1004" target="pGSvymUeo9-D6tLOgoS9-1002">
          <mxGeometry relative="1" as="geometry" />
        </mxCell>
        <mxCell id="pGSvymUeo9-D6tLOgoS9-1017" value="deploy function" style="edgeLabel;html=1;align=center;verticalAlign=middle;resizable=0;points=[];" vertex="1" connectable="0" parent="pGSvymUeo9-D6tLOgoS9-1016">
          <mxGeometry x="0.2486" y="-3" relative="1" as="geometry">
            <mxPoint as="offset" />
          </mxGeometry>
        </mxCell>
        <mxCell id="pGSvymUeo9-D6tLOgoS9-1004" value="" style="strokeColor=#dddddd;shadow=1;strokeWidth=1;rounded=1;absoluteArcSize=1;arcSize=2;" vertex="1" parent="14">
          <mxGeometry x="63" y="211" width="205" height="60" as="geometry" />
        </mxCell>
        <mxCell id="pGSvymUeo9-D6tLOgoS9-1005" value="Cloud&#xa;Build" style="editableCssRules=.*;fontColor=#999999;shape=image;verticalLabelPosition=middle;labelBackgroundColor=#ffffff;verticalAlign=middle;labelPosition=right;align=left;spacingLeft=20;part=1;points=[];imageAspect=0;image=data:image/svg+xml,PHN2ZyB4bWxucz0iaHR0cDovL3d3dy53My5vcmcvMjAwMC9zdmciIHhtbG5zOnY9Imh0dHBzOi8vdmVjdGEuaW8vbmFubyIgd2lkdGg9IjE3LjMyOTk5OTkyMzcwNjA1NSIgaGVpZ2h0PSIxOS42MTAwMDA2MTAzNTE1NjIiIHZpZXdCb3g9IjAgMCAxNy4zMjk5OTk5MjM3MDYwNTUgMTkuNjEwMDAwNjEwMzUxNTYyIj4mI3hhOwk8c3R5bGUgdHlwZT0idGV4dC9jc3MiPiYjeGE7CS5zdDB7ZmlsbDojNDI4NWY0O30mI3hhOwkuc3Qxe2ZpbGw6IzY2OWRmNjt9JiN4YTsJLnN0MntmaWxsOiNhZWNiZmE7fSYjeGE7CTwvc3R5bGU+JiN4YTsJPHBhdGggY2xhc3M9InN0MCIgZD0iTTEyLjE4IDcuOThMMTEgNy4yOWwtMy41MiA2LjEgMS4xOC42OCAzLjUyLTIuMDN6IiBmaWxsPSIjNDI4NWY0Ii8+JiN4YTsJPHBhdGggY2xhc3M9InN0MSIgZD0iTTYuMzIgMTIuNzJsMy41My02LjA5LTEuMTktLjY5LTMuNTIgMi4wNHY0LjA2eiIgZmlsbD0iIzY2OWRmNiIvPiYjeGE7CTxwYXRoIGNsYXNzPSJzdDIiIGQ9Ik0zLjc1IDcuOThMMCA1LjgxdjkuMmw3Ljk3IDQuNnYtNC4zM2wtNC4yMi0yLjQ0em05LjEzLTEuMmwzLjc2LTIuMTdMOC42NiAwIC42OCA0LjYxbDMuNzYgMi4xNyA0LjIyLTIuNDR6TTkuMzUgMTkuNjFsNy45OC00LjZ2LTkuMmwtMy43NiAyLjE3djQuODZsLTQuMjIgMi40NHoiIGZpbGw9IiNhZWNiZmEiLz4mI3hhOzwvc3ZnPg==;" vertex="1" parent="pGSvymUeo9-D6tLOgoS9-1004">
          <mxGeometry width="26" height="30" relative="1" as="geometry">
            <mxPoint x="17" y="15" as="offset" />
          </mxGeometry>
        </mxCell>
        <mxCell id="818" value="Architecture:&amp;nbsp;&lt;span style=&quot;color: rgb(32, 33, 36); font-family: &amp;quot;Google Sans&amp;quot;, Roboto, Arial, sans-serif; font-size: 22px; font-variant-ligatures: none;&quot;&gt;Google &lt;/span&gt;&lt;span style=&quot;color: rgb(32, 33, 36); font-family: &amp;quot;Google Sans&amp;quot;, Roboto, Arial, sans-serif; font-size: 22px; font-variant-ligatures: none;&quot;&gt;Cloud Functions Tutorial&lt;/span&gt;" style="fillColor=#4DA1F5;strokeColor=none;shadow=1;gradientColor=none;fontSize=14;align=left;spacingLeft=50;fontColor=#ffffff;html=1;" parent="1" vertex="1">
          <mxGeometry x="260" y="50" width="650" height="40" as="geometry" />
        </mxCell>
        <mxCell id="pGSvymUeo9-D6tLOgoS9-1021" style="edgeStyle=orthogonalEdgeStyle;rounded=0;orthogonalLoop=1;jettySize=auto;html=1;entryX=0;entryY=0.25;entryDx=0;entryDy=0;" edge="1" parent="1" source="pGSvymUeo9-D6tLOgoS9-1001" target="pGSvymUeo9-D6tLOgoS9-1002">
          <mxGeometry relative="1" as="geometry" />
        </mxCell>
        <mxCell id="pGSvymUeo9-D6tLOgoS9-1001" value="User" style="shape=umlActor;verticalLabelPosition=bottom;verticalAlign=top;html=1;outlineConnect=0;" vertex="1" parent="1">
          <mxGeometry x="300" y="170" width="30" height="60" as="geometry" />
        </mxCell>
        <mxCell id="pGSvymUeo9-D6tLOgoS9-1010" value="Github Repository" style="dashed=0;outlineConnect=0;html=1;align=center;labelPosition=center;verticalLabelPosition=bottom;verticalAlign=top;shape=mxgraph.weblogos.github" vertex="1" parent="1">
          <mxGeometry x="700" y="460" width="75" height="75" as="geometry" />
        </mxCell>
        <mxCell id="pGSvymUeo9-D6tLOgoS9-1011" value="" style="whiteSpace=wrap;html=1;" vertex="1" parent="1">
          <mxGeometry x="265" y="280" width="200" height="240" as="geometry" />
        </mxCell>
        <mxCell id="pGSvymUeo9-D6tLOgoS9-1012" style="edgeStyle=orthogonalEdgeStyle;rounded=0;orthogonalLoop=1;jettySize=auto;html=1;exitX=0.5;exitY=0.5;exitDx=0;exitDy=0;exitPerimeter=0;" edge="1" parent="1" source="pGSvymUeo9-D6tLOgoS9-1008" target="pGSvymUeo9-D6tLOgoS9-1010">
          <mxGeometry relative="1" as="geometry" />
        </mxCell>
        <mxCell id="pGSvymUeo9-D6tLOgoS9-1013" value="push code" style="edgeLabel;html=1;align=center;verticalAlign=middle;resizable=0;points=[];" vertex="1" connectable="0" parent="pGSvymUeo9-D6tLOgoS9-1012">
          <mxGeometry x="0.4148" y="2" relative="1" as="geometry">
            <mxPoint y="1" as="offset" />
          </mxGeometry>
        </mxCell>
        <mxCell id="pGSvymUeo9-D6tLOgoS9-1018" value="manual deploy via SDK" style="edgeStyle=orthogonalEdgeStyle;rounded=0;orthogonalLoop=1;jettySize=auto;html=1;entryX=0.5;entryY=1;entryDx=0;entryDy=0;" edge="1" parent="1" source="pGSvymUeo9-D6tLOgoS9-1008" target="pGSvymUeo9-D6tLOgoS9-1006">
          <mxGeometry relative="1" as="geometry" />
        </mxCell>
        <mxCell id="pGSvymUeo9-D6tLOgoS9-1008" value="Developer" style="shape=umlActor;verticalLabelPosition=bottom;verticalAlign=top;html=1;outlineConnect=0;" vertex="1" parent="1">
          <mxGeometry x="345" y="414" width="30" height="60" as="geometry" />
        </mxCell>
        <mxCell id="pGSvymUeo9-D6tLOgoS9-1019" style="edgeStyle=orthogonalEdgeStyle;rounded=0;orthogonalLoop=1;jettySize=auto;html=1;entryX=0;entryY=0.75;entryDx=0;entryDy=0;" edge="1" parent="1" source="pGSvymUeo9-D6tLOgoS9-1006" target="pGSvymUeo9-D6tLOgoS9-1002">
          <mxGeometry relative="1" as="geometry" />
        </mxCell>
        <mxCell id="pGSvymUeo9-D6tLOgoS9-1020" value="deploy via SDK" style="edgeLabel;html=1;align=center;verticalAlign=middle;resizable=0;points=[];" vertex="1" connectable="0" parent="pGSvymUeo9-D6tLOgoS9-1019">
          <mxGeometry x="-0.4649" relative="1" as="geometry">
            <mxPoint as="offset" />
          </mxGeometry>
        </mxCell>
        <mxCell id="pGSvymUeo9-D6tLOgoS9-1006" value="" style="strokeColor=#dddddd;shadow=1;strokeWidth=1;rounded=1;absoluteArcSize=1;arcSize=2;" vertex="1" parent="1">
          <mxGeometry x="305" y="310" width="110" height="60" as="geometry" />
        </mxCell>
        <mxCell id="pGSvymUeo9-D6tLOgoS9-1007" value="Cloud&#xa;SDK" style="editableCssRules=.*;fontColor=#999999;shape=image;verticalLabelPosition=middle;labelBackgroundColor=#ffffff;verticalAlign=middle;labelPosition=right;align=left;spacingLeft=20;part=1;points=[];imageAspect=0;image=data:image/svg+xml,PHN2ZyB4bWxucz0iaHR0cDovL3d3dy53My5vcmcvMjAwMC9zdmciIHhtbG5zOnY9Imh0dHBzOi8vdmVjdGEuaW8vbmFubyIgd2lkdGg9IjQyNCIgaGVpZ2h0PSI0MjQiIHZpZXdCb3g9IjAgMCA0MjQgNDI0Ij4mI3hhOwk8c3R5bGUgdHlwZT0idGV4dC9jc3MiPiYjeGE7CS5zdDB7ZmlsbDojNDI4NWY0O30mI3hhOwk8L3N0eWxlPiYjeGE7CTxwYXRoIGNsYXNzPSJzdDAiIGQ9Ik00MjQgMHY0MjRIMFYwek0yMTIgOTcuODQ2Yy0zNy44ODQgMC03MC4xNjQgMjMuOTktODIuNDc4IDU3LjYwOGgwbC0zLjQwMy4wMDFjLTQyLjYzNCAwLTc3LjE5NiAzNC41NjItNzcuMTk2IDc3LjE5NnMzNC41NjIgNzcuMTk2IDc3LjE5NiA3Ny4xOTZoMCAxNzEuNzYzYzQyLjYzNCAwIDc3LjE5Ni0zNC41NjIgNzcuMTk2LTc3LjE5NnMtMzQuNTYyLTc3LjE5Ni03Ny4xOTYtNzcuMTk2aDBsLTMuNDAzLS4wMDFDMjgyLjE2NCAxMjEuODM3IDI0OS44ODQgOTcuODQ2IDIxMiA5Ny44NDZ6IiBmaWxsLXJ1bGU9ImV2ZW5vZGQiLz4mI3hhOzwvc3ZnPg==;" vertex="1" parent="pGSvymUeo9-D6tLOgoS9-1006">
          <mxGeometry width="30" height="30" relative="1" as="geometry">
            <mxPoint x="15" y="15" as="offset" />
          </mxGeometry>
        </mxCell>
        <mxCell id="pGSvymUeo9-D6tLOgoS9-1014" value="synchronize code / trigger build" style="edgeStyle=orthogonalEdgeStyle;rounded=0;orthogonalLoop=1;jettySize=auto;html=1;exitX=0.5;exitY=1;exitDx=0;exitDy=0;" edge="1" parent="1" source="pGSvymUeo9-D6tLOgoS9-1004" target="pGSvymUeo9-D6tLOgoS9-1010">
          <mxGeometry relative="1" as="geometry" />
        </mxCell>
        <mxCell id="pGSvymUeo9-D6tLOgoS9-1022" value="&lt;div style=&quot;text-align: left;&quot;&gt;&lt;span style=&quot;background-color: initial;&quot;&gt;GET ALL USERS&lt;/span&gt;&lt;/div&gt;&lt;div style=&quot;text-align: left;&quot;&gt;&lt;span style=&quot;background-color: initial;&quot;&gt;ADD USER&lt;/span&gt;&lt;/div&gt;&lt;div style=&quot;text-align: left;&quot;&gt;&lt;span style=&quot;background-color: initial;&quot;&gt;UPDATE USER&lt;/span&gt;&lt;/div&gt;&lt;div style=&quot;text-align: left;&quot;&gt;&lt;span style=&quot;background-color: initial;&quot;&gt;DELETE USER&lt;/span&gt;&lt;/div&gt;" style="text;html=1;resizable=0;autosize=1;align=center;verticalAlign=middle;points=[];fillColor=none;strokeColor=none;rounded=0;" vertex="1" parent="1">
          <mxGeometry x="360" y="140" width="110" height="60" as="geometry" />
        </mxCell>
      </root>
    </mxGraphModel>
  </diagram>
</mxfile>
